<?xml version="1.0" encoding="UTF-8"?>
<svg width="140" height="190" viewBox="0 0 160 220" xmlns="http://www.w3.org/2000/svg">
      <rect x="35" y="130" width="90" height="80" rx="8" fill="#1a1710"/>
      <rect x="55" y="130" width="50" height="40" rx="4" fill="#e8d5a0"/>
      <rect x="68" y="110" width="24" height="24" rx="4" fill="#8B6347"/>
      <ellipse cx="80" cy="90" rx="36" ry="38" fill="#8B6347"/>
      <ellipse cx="80" cy="55" rx="22" ry="18" fill="#1a0e08"/>
      <ellipse cx="80" cy="48" rx="14" ry="12" fill="#1a0e08"/>
      <ellipse cx="48" cy="80" rx="10" ry="22" fill="#1a0e08"/>
      <ellipse cx="112" cy="80" rx="10" ry="22" fill="#1a0e08"/>
      <ellipse cx="66" cy="88" rx="7" ry="7" fill="white"/>
      <ellipse cx="94" cy="88" rx="7" ry="7" fill="white"/>
      <circle cx="67" cy="89" r="4" fill="#1a0e08"/>
      <circle cx="95" cy="89" r="4" fill="#1a0e08"/>
      <circle cx="68" cy="87" r="1.5" fill="white"/>
      <circle cx="96" cy="87" r="1.5" fill="white"/>
      <rect x="57" y="82" width="18" height="13" rx="4" fill="none" stroke="#b8960c" stroke-width="2"/>
      <rect x="85" y="82" width="18" height="13" rx="4" fill="none" stroke="#b8960c" stroke-width="2"/>
      <line x1="75" y1="88" x2="85" y2="88" stroke="#b8960c" stroke-width="2"/>
      <line x1="44" y1="88" x2="57" y2="88" stroke="#b8960c" stroke-width="1.5"/>
      <line x1="103" y1="88" x2="116" y2="88" stroke="#b8960c" stroke-width="1.5"/>
      <ellipse cx="80" cy="98" rx="4" ry="3" fill="#7a5238"/>
      <path d="M 68 108 Q 80 118 92 108" stroke="#5a3020" stroke-width="2" fill="none" stroke-linecap="round"/>
      <circle cx="44" cy="92" r="5" fill="#b8960c"/>
      <circle cx="116" cy="92" r="5" fill="#b8960c"/>
      <rect x="10" y="132" width="28" height="16" rx="8" fill="#1a1710"/>
      <rect x="122" y="132" width="28" height="16" rx="8" fill="#1a1710"/>
      <ellipse cx="18" cy="155" rx="10" ry="8" fill="#8B6347"/>
      <ellipse cx="142" cy="148" rx="10" ry="8" fill="#8B6347"/>
      <rect x="118" y="138" width="32" height="42" rx="2" fill="white" stroke="#c8bfa8" stroke-width="1"/>
      <line x1="123" y1="148" x2="145" y2="148" stroke="#c8bfa8" stroke-width="1"/>
      <line x1="123" y1="154" x2="145" y2="154" stroke="#c8bfa8" stroke-width="1"/>
      <line x1="123" y1="160" x2="145" y2="160" stroke="#c8bfa8" stroke-width="1"/>
      <text x="126" y="146" font-size="5" fill="#b8960c" font-family="Georgia">GRANT</text>
      <text x="126" y="152" font-size="5" fill="#b8960c" font-family="Georgia">DEED</text>
    </svg>