<svg xmlns="http://www.w3.org/2000/svg" width="200" height="200" viewBox="0 0 200 200" role="img" aria-label="Dottie, modern, subtle headset">
  <circle cx="100" cy="100" r="92" fill="#b8960c"/><circle cx="100" cy="100" r="83" fill="#f3ead6"/>
  <clipPath id="c"><circle cx="100" cy="100" r="83"/></clipPath>
  <g clip-path="url(#c)">
    <path d="M56 172 Q44 74 100 66 Q156 74 144 172 L124 172 Q128 100 108 96 Q104 90 100 90 Q96 90 92 96 Q72 100 76 172 Z" fill="#5c2418"/>
    <path d="M88 122 h24 v26 q0 6 -12 9 q-12 -3 -12 -9 Z" fill="#f2c6a0"/>
    <path d="M88 132 q12 8 24 0 v6 q-12 8 -24 0 Z" fill="#e0a67f" opacity="0.5"/>
    <path d="M50 200 Q54 156 92 146 L108 146 Q146 156 150 200 Z" fill="#26334d"/>
    <path d="M88 146 L112 146 L120 160 L100 186 L80 160 Z" fill="#f3ead6"/>
    <path d="M88 146 L96 156 L88 166 L80 158 Z" fill="#26334d"/>
    <path d="M112 146 L104 156 L112 166 L120 158 Z" fill="#26334d"/>
    <path d="M96 156 L100 186 L104 156 Q100 160 96 156 Z" fill="#dfe6ef"/>
    <path d="M88 166 L80 200 L92 172 Z" fill="#1e2940"/>
    <path d="M112 166 L120 200 L108 172 Z" fill="#1e2940"/>
    <circle cx="100" cy="178" r="2.6" fill="#b8960c"/>
    <path d="M72 98 Q72 68 100 66 Q128 68 128 98 Q128 124 112 133 Q100 139 88 133 Q72 124 72 98 Z" fill="#f4cba6"/>
    <path d="M74 84 Q74 60 100 58 Q126 60 126 84 Q116 74 100 74 Q84 74 74 84 Z" fill="#5c2418"/>
    <ellipse cx="82" cy="113" rx="7.5" ry="5" fill="#f2a68f" opacity="0.45"/><ellipse cx="118" cy="113" rx="7.5" ry="5" fill="#f2a68f" opacity="0.45"/><ellipse cx="87" cy="100" rx="7" ry="8" fill="#ffffff"/><ellipse cx="113" cy="100" rx="7" ry="8" fill="#ffffff"/>
    <circle cx="88" cy="100.5" r="4.4" fill="#6b4a2a"/><circle cx="114" cy="100.5" r="4.4" fill="#6b4a2a"/>
    <circle cx="88" cy="100.5" r="2.1" fill="#241a10"/><circle cx="114" cy="100.5" r="2.1" fill="#241a10"/>
    <circle cx="89.8" cy="98" r="1.5" fill="#ffffff"/><circle cx="115.8" cy="98" r="1.5" fill="#ffffff"/>
    <path d="M80 94 l-3 -2 M99 94 l3 -2" stroke="#2c1d12" stroke-width="1.6" stroke-linecap="round"/>
    <path d="M120 94 l3 -2 M101 94 l-3 -2" stroke="#2c1d12" stroke-width="1.6" stroke-linecap="round"/>
    <path d="M80 86 Q87 82 94 86 M106 86 Q113 82 120 86" stroke="#5c2418" stroke-width="2.2" fill="none" stroke-linecap="round"/>
    <path d="M100 106 L96 116 Q100 119 104 116 Z" fill="#efb992"/>
    <path d="M100 106 L96 116 Q100 118 100 116 Z" fill="#e3a67d" opacity="0.55"/>
    <path d="M96 116 Q100 119 104 116" stroke="#d9976e" stroke-width="1.3" fill="none" stroke-linecap="round"/>
    <path d="M87 122 Q100 132 113 122 Q100 128 87 122 Z" fill="#c76b52"/>
    <path d="M89 123 Q100 130 111 123 Q100 126 89 123 Z" fill="#e78a6f"/>
    <g fill="none" stroke="#1a1710" stroke-width="2.6" stroke-linejoin="round">
      <rect x="76" y="90" width="23" height="19" rx="6"/><rect x="101" y="90" width="23" height="19" rx="6"/>
      <path d="M99 96 q1 -3 2 0"/><path d="M76 95 l-8 -2"/><path d="M124 95 l8 -2"/>
    </g>
    <path d="M66 100 Q66 66 100 66 Q134 66 134 100" fill="none" stroke="#1a1710" stroke-width="4"/>
    <rect x="60" y="98" width="9" height="16" rx="3" fill="#1a1710"/>
    <path d="M69 112 Q80 128 92 126" fill="none" stroke="#1a1710" stroke-width="3.5" stroke-linecap="round"/><circle cx="93" cy="126" r="4" fill="#1a1710"/>
  </g>
</svg>
